<svg width="466" xmlns="http://www.w3.org/2000/svg" height="469" id="screenshot-c6f56b0a-8de9-80e6-8006-ec3c870692fa" viewBox="-27 -27 466 469" xmlns:xlink="http://www.w3.org/1999/xlink" fill="none" version="1.1"><g id="shape-c6f56b0a-8de9-80e6-8006-ec3c870692fa" rx="0" ry="0"><g id="shape-c6f56b0a-8de9-80e6-8006-ec38401bf2e1"><defs><filter id="filter-render-2" x="-0.0675" y="-0.0675" width="1.165" height="1.1725" filterUnits="objectBoundingBox" color-interpolation-filters="sRGB"><feFlood flood-opacity="0" result="BackgroundImageFix"/><feColorMatrix in="SourceAlpha" type="matrix" values="0 0 0 0 0 0 0 0 0 0 0 0 0 0 0 0 0 0 127 0"/><feOffset dx="4" dy="5"/><feGaussianBlur stdDeviation="2"/><feColorMatrix type="matrix" values="0 0 0 0 0 0 0 0 0 0 0 0 0 0 0 0 0 0 0.2 0"/><feBlend mode="normal" in2="BackgroundImageFix" result="filter_c6f56b0a-8de9-80e6-8006-ec38bb574006"/><feBlend mode="normal" in="SourceGraphic" in2="filter_c6f56b0a-8de9-80e6-8006-ec38bb574006" result="shape"/></filter><filter id="filter-shadow-render-2" x="-0.0675" y="-0.0675" width="1.165" height="1.1725" filterUnits="objectBoundingBox" color-interpolation-filters="sRGB"><feFlood flood-opacity="0" result="BackgroundImageFix"/><feColorMatrix in="SourceAlpha" type="matrix" values="0 0 0 0 0 0 0 0 0 0 0 0 0 0 0 0 0 0 127 0"/><feOffset dx="4" dy="5"/><feGaussianBlur stdDeviation="2"/><feColorMatrix type="matrix" values="0 0 0 0 0 0 0 0 0 0 0 0 0 0 0 0 0 0 0.2 0"/><feBlend mode="normal" in2="BackgroundImageFix" result="filter_c6f56b0a-8de9-80e6-8006-ec38bb574006"/><feBlend mode="normal" in="SourceGraphic" in2="filter_c6f56b0a-8de9-80e6-8006-ec38bb574006" result="shape"/></filter></defs><g class="fills" id="fills-c6f56b0a-8de9-80e6-8006-ec38401bf2e1"><rect width="400" height="400" x="0" transform="matrix(1.000000, 0.000000, 0.000000, 1.000000, 0.000000, 0.000000)" style="fill: rgb(12, 183, 105); fill-opacity: 1;" ry="0" rx="0" filter="url(#filter-render-2)" y="0"/></g><g id="strokes-57e3f326-f71b-802a-8006-ec3de1da6516-c6f56b0a-8de9-80e6-8006-ec38401bf2e1" class="strokes"><g class="inner-stroke-shape" transform="matrix(1.000000, 0.000000, 0.000000, 1.000000, 0.000000, 0.000000)"><defs><clipPath id="inner-stroke-render-2-c6f56b0a-8de9-80e6-8006-ec38401bf2e1-0"><use href="#stroke-shape-render-2-c6f56b0a-8de9-80e6-8006-ec38401bf2e1-0"/></clipPath><rect rx="0" ry="0" x="0" y="0" width="400" height="400" id="stroke-shape-render-2-c6f56b0a-8de9-80e6-8006-ec38401bf2e1-0" style="fill: none; stroke-width: 10; stroke: rgb(20, 111, 69); stroke-opacity: 1;"/></defs><use href="#stroke-shape-render-2-c6f56b0a-8de9-80e6-8006-ec38401bf2e1-0" clip-path="url('#inner-stroke-render-2-c6f56b0a-8de9-80e6-8006-ec38401bf2e1-0')"/></g></g></g><g id="shape-c6f56b0a-8de9-80e6-8006-ec3979b789c5"><g class="fills" id="fills-c6f56b0a-8de9-80e6-8006-ec3979b789c5"><path d="M225,154.4117431640625L225,214C225,219.5191650390625,220.5191650390625,224,215,224L35,224C29.4808349609375,224,25,219.5191650390625,25,214L25,34C25,28.4808349609375,29.4808349609375,24,35,24L215,24C220.5191650390625,24,225,28.4808349609375,225,34L225,89.9019775390625L178,124L225,154.4117431640625" style="fill: rgb(0, 214, 116); fill-opacity: 1;"/></g></g><g id="shape-c6f56b0a-8de9-80e6-8006-ec3915f6ae69" style="mix-blend-mode: color-dodge;"><g class="fills" id="fills-c6f56b0a-8de9-80e6-8006-ec3915f6ae69"><path d="M168,186C168,180.4808349609375,172.4808349609375,176,178,176L358,176C363.5191650390625,176,368,180.4808349609375,368,186L368,366C368,371.5191650390625,363.5191650390625,376,358,376L178,376C172.4808349609375,376,168,371.5191650390625,168,366L168,186" style="fill: rgb(251, 242, 54); fill-opacity: 1;"/></g></g><g id="shape-c6f56b0a-8de9-80e6-8006-ec3bbe5dc928" width="109.184" height="136" rx="0" ry="0" style="mix-blend-mode: multiply; fill: rgb(0, 0, 0);"><g id="shape-c6f56b0a-8de9-80e6-8006-ec3bbe61c1c4" style="display: none;"><g class="fills" id="fills-c6f56b0a-8de9-80e6-8006-ec3bbe61c1c4"><rect width="109.18399999999997" height="136" x="243" transform="matrix(1.000000, 0.000000, 0.000000, 1.000000, 0.000000, 0.000000)" style="fill: none;" ry="0" fill="none" rx="0" y="222"/></g></g><g id="shape-c6f56b0a-8de9-80e6-8006-ec3bbe675e64" rx="0" ry="0" style="opacity: 1; fill: rgb(220, 185, 69); fill-opacity: 1;"><g id="shape-c6f56b0a-8de9-80e6-8006-ec3bbe63b514"><g class="fills" id="fills-c6f56b0a-8de9-80e6-8006-ec3bbe63b514"><path d="M255.030029296875,348.4949951171875L255.030029296875,348.4949951171875C252.98333740234375,348.4949951171875,251.193359375,348.344970703125,249.65997314453125,348.0450439453125C248.1199951171875,347.7449951171875,246.75335693359375,347.3416748046875,245.55999755859375,346.8349609375L245.55999755859375,346.8349609375L245.55999755859375,337.10498046875C246.9266357421875,337.4449462890625,248.37664794921875,337.74169921875,249.90997314453125,337.9949951171875C251.45001220703125,338.2550048828125,253.0733642578125,338.385009765625,254.780029296875,338.385009765625L254.780029296875,338.385009765625C256.913330078125,338.385009765625,258.94000244140625,337.9583740234375,260.8599853515625,337.10498046875C262.780029296875,336.251708984375,264.336669921875,334.75830078125,265.530029296875,332.625C266.72332763671875,330.49169921875,267.32000732421875,327.5050048828125,267.32000732421875,323.6650390625L267.32000732421875,323.6650390625L267.32000732421875,232.78497314453125L278.84002685546875,232.78497314453125L278.84002685546875,322.7650146484375C278.84002685546875,331.558349609375,276.663330078125,338.0450439453125,272.30999755859375,342.2249755859375C267.9566650390625,346.405029296875,262.1966552734375,348.4949951171875,255.030029296875,348.4949951171875ZM322.0999755859375,325.4549560546875L322.0999755859375,325.4549560546875C316.97998046875,325.4549560546875,312.24664306640625,325.0716552734375,307.9000244140625,324.3050537109375C303.54669189453125,323.538330078125,299.91998291015625,322.4716796875,297.02001953125,321.10498046875L297.02001953125,321.10498046875L297.02001953125,310.094970703125C300.086669921875,311.461669921875,303.9033203125,312.6983642578125,308.469970703125,313.8050537109375C313.03668212890625,314.9183349609375,317.75335693359375,315.4749755859375,322.6199951171875,315.4749755859375L322.6199951171875,315.4749755859375C329.4466552734375,315.4749755859375,334.586669921875,314.151611328125,338.03997802734375,311.5050048828125C341.49334716796875,308.8582763671875,343.219970703125,305.2750244140625,343.219970703125,300.7550048828125L343.219970703125,300.7550048828125C343.219970703125,297.768310546875,342.58001708984375,295.248291015625,341.29998779296875,293.1949462890625C340.02001953125,291.1483154296875,337.8233642578125,289.251708984375,334.71002197265625,287.5050048828125C331.5966796875,285.751708984375,327.26666259765625,283.89501953125,321.719970703125,281.9349365234375L321.719970703125,281.9349365234375C313.95330810546875,279.1217041015625,308.086669921875,275.6650390625,304.1199951171875,271.56494140625C300.1533203125,267.4716796875,298.16998291015625,261.8817138671875,298.16998291015625,254.79498291015625L298.16998291015625,254.79498291015625C298.16998291015625,249.93499755859375,299.40667724609375,245.7750244140625,301.8800048828125,242.31500244140625C304.35333251953125,238.8616943359375,307.78668212890625,236.19500732421875,312.17999267578125,234.31500244140625C316.58001708984375,232.441650390625,321.63665771484375,231.5050048828125,327.3499755859375,231.5050048828125L327.3499755859375,231.5050048828125C332.38330078125,231.5050048828125,336.99334716796875,231.9749755859375,341.17999267578125,232.91497802734375C345.3599853515625,233.84832763671875,349.15667724609375,235.08502197265625,352.57000732421875,236.625L352.57000732421875,236.625L348.97998046875,246.4749755859375C345.82666015625,245.114990234375,342.393310546875,243.96502685546875,338.67999267578125,243.0250244140625C334.9666748046875,242.08502197265625,331.106689453125,241.614990234375,327.0999755859375,241.614990234375L327.0999755859375,241.614990234375C321.3800048828125,241.614990234375,317.07000732421875,242.8316650390625,314.16998291015625,245.2650146484375C311.27001953125,247.69830322265625,309.82000732421875,250.9183349609375,309.82000732421875,254.92498779296875L309.82000732421875,254.92498779296875C309.82000732421875,257.99835205078125,310.46002197265625,260.558349609375,311.739990234375,262.60498046875C313.02001953125,264.651611328125,315.1099853515625,266.48828125,318.010009765625,268.114990234375C320.9100341796875,269.7349853515625,324.83331298828125,271.481689453125,329.780029296875,273.35498046875L329.780029296875,273.35498046875C335.1600341796875,275.3216552734375,339.7066650390625,277.4349365234375,343.41998291015625,279.6949462890625C347.12664794921875,281.9549560546875,349.94000244140625,284.6650390625,351.8599853515625,287.824951171875C353.780029296875,290.978271484375,354.739990234375,294.9449462890625,354.739990234375,299.7249755859375L354.739990234375,299.7249755859375C354.739990234375,307.8316650390625,351.79669189453125,314.1483154296875,345.9100341796875,318.675048828125C340.0233154296875,323.1949462890625,332.086669921875,325.4549560546875,322.0999755859375,325.4549560546875Z"/></g></g></g></g><g id="shape-c6f56b0a-8de9-80e6-8006-ec3c022c6a53" width="120" height="261" rx="0" ry="0" style="fill: rgb(0, 0, 0);"><g id="shape-c6f56b0a-8de9-80e6-8006-ec3c022cdab3" style="display: none;"><g class="fills" id="fills-c6f56b0a-8de9-80e6-8006-ec3c022cdab3"><rect width="92.44444444444446" height="185" x="61" transform="matrix(1.000000, 0.000000, 0.000000, 1.000000, 0.000000, 0.000000)" style="fill: none;" ry="0" fill="none" rx="0" y="24"/></g></g><g id="shape-c6f56b0a-8de9-80e6-8006-ec3c022f3a70" rx="0" ry="0" style="opacity: 1; fill: rgb(255, 255, 255); fill-opacity: 1;"><g id="shape-c6f56b0a-8de9-80e6-8006-ec3c022d4c8b"><g class="fills" id="fills-c6f56b0a-8de9-80e6-8006-ec3c022d4c8b"><path d="M125.9036865234375,165.762451171875L125.9036865234375,165.762451171875C114.86172485351562,165.762451171875,105.36050415039062,163.8721923828125,97.39999389648438,160.0919189453125C89.43951416015625,156.3116455078125,83.3099365234375,150.78759765625,79.01126098632812,143.5198974609375C74.70745849609375,136.2569580078125,72.5555419921875,127.368408203125,72.5555419921875,116.8543701171875L72.5555419921875,116.8543701171875C72.5555419921875,106.45849609375,74.60986328125,97.567626953125,78.718505859375,90.1817626953125C82.8271484375,82.8006591796875,88.54074096679688,77.1302490234375,95.8592529296875,73.1702880859375C103.17779541015625,69.2152099609375,111.716064453125,67.237548828125,121.47406005859375,67.237548828125L121.47406005859375,67.237548828125C130.46173095703125,67.237548828125,138.1988525390625,69.068603515625,144.685302734375,72.7308349609375C151.166748046875,76.39306640625,156.17413330078125,81.560302734375,159.70751953125,88.2325439453125C163.23583984375,94.9095458984375,165,102.9144287109375,165,112.2470703125L165,112.2470703125L165,119.512451171875L90.08148193359375,119.512451171875C90.3382568359375,127.781982421875,92.040771484375,134.3385009765625,95.18902587890625,139.1820068359375C98.3321533203125,144.0255126953125,102.63336181640625,147.4798583984375,108.09274291992188,149.5447998046875C113.54693603515625,151.6146240234375,119.869140625,152.6494140625,127.05926513671875,152.6494140625L127.05926513671875,152.6494140625C132.7086181640625,152.6494140625,138.2938232421875,151.940673828125,143.8148193359375,150.52294921875C149.3358154296875,149.1053466796875,154.8568115234375,147.215087890625,160.3778076171875,144.8525390625L160.3778076171875,144.8525390625L160.3778076171875,159.0286865234375C154.4715576171875,161.391357421875,148.5654296875,163.1043701171875,142.6593017578125,164.1676025390625C136.7530517578125,165.2308349609375,131.1678466796875,165.762451171875,125.9036865234375,165.762451171875ZM90.4666748046875,106.7537841796875L147.6666259765625,106.7537841796875C147.409912109375,101.201416015625,146.25433349609375,96.4453125,144.20001220703125,92.4854736328125C142.1456298828125,88.5302734375,139.2259521484375,85.489501953125,135.44091796875,83.363037109375C131.65069580078125,81.236572265625,126.99505615234375,80.17333984375,121.47406005859375,80.17333984375L121.47406005859375,80.17333984375C112.87161254882812,80.17333984375,105.907470703125,82.564453125,100.58163452148438,87.3465576171875C95.25067138671875,92.1334228515625,91.8790283203125,98.6025390625,90.4666748046875,106.7537841796875L90.4666748046875,106.7537841796875Z" style="fill: rgb(255, 255, 255);"/></g></g></g></g></g></svg>